# xmcd
#
# Track frame offsets:
#	150
#	11410
#	22750
#	31782
#	42167
#	52212
#	71485
#	82732
#	96887
#	106702
#	122582
#	131847
#
# Disc length: 1889 seconds
#
# Revision: 1
# Processed by: cddbd v1.5.1PL0 Copyright (c) Steve Scherf et al.
# Submitted via: EasyCDDAExtractor 7.0.3.1
#
DISCID=89075f0c
DTITLE=Mt Zion - Still He Came
DYEAR=2004
DGENRE=Bluegrass
TTITLE0=Send The Light
TTITLE1=Last Days Of Time
TTITLE2=I'm Saved
TTITLE3=Still He Came
TTITLE4=Steady As Mt Zion
TTITLE5=It Was Me
TTITLE6=Hezekiah
TTITLE7=Moses Prayed
TTITLE8=Walk In The Path
TTITLE9=The 4th Man
TTITLE10=We Shall Meet
TTITLE11=Standing On The Solid Rock
EXTD=
EXTT0=
EXTT1=
EXTT2=
EXTT3=
EXTT4=
EXTT5=
EXTT6=
EXTT7=
EXTT8=
EXTT9=
EXTT10=
EXTT11=
PLAYORDER=
